<svg xmlns="http://www.w3.org/2000/svg" width="939" height="1117" viewBox="0 0 939 1117">
<g>
<path d="M 514.79 1026.81 C508.36,1030.71 494.29,1038.46 483.54,1044.03 L 464.00 1054.15 L 464.00 1006.33 L 475.25 1000.03 C481.44,996.56 491.00,991.03 496.50,987.73 C502.00,984.44 508.00,980.88 509.84,979.83 C513.67,977.66 531.29,966.33 538.00,961.74 C540.47,960.05 545.42,956.71 549.00,954.32 C552.58,951.93 555.95,949.64 556.50,949.23 C557.05,948.83 559.30,947.19 561.50,945.58 C581.34,931.11 608.44,907.76 629.35,887.14 C658.83,858.07 677.70,835.43 702.00,800.00 C715.22,780.71 734.34,748.48 741.73,733.00 C754.24,706.79 757.62,699.49 760.74,692.00 C784.99,633.77 802.41,570.18 813.89,498.00 C820.96,453.50 826.00,386.01 825.95,336.50 C825.92,307.82 823.60,258.20 822.23,256.83 C821.69,256.29 808.93,253.02 793.87,249.55 C778.82,246.09 762.22,242.10 757.00,240.67 C751.78,239.25 741.42,236.52 734.00,234.61 C702.80,226.56 645.11,205.89 599.50,186.42 C589.60,182.20 578.58,177.51 575.00,176.00 C564.16,171.43 506.27,142.65 494.00,135.74 C487.67,132.18 480.70,128.26 478.50,127.04 C476.30,125.81 472.14,123.47 469.25,121.83 L 464.00 118.85 L 464.00 94.93 C464.00,76.45 464.28,71.00 465.25,71.01 C465.94,71.02 469.88,73.04 474.00,75.50 C478.12,77.96 481.82,79.98 482.22,79.99 C482.62,79.99 486.44,82.07 490.72,84.60 C495.00,87.14 500.52,90.30 503.00,91.63 C505.48,92.96 511.10,96.05 515.50,98.50 C519.90,100.94 529.12,105.76 536.00,109.20 C542.88,112.64 548.65,115.80 548.83,116.23 C549.02,116.65 549.75,117.00 550.46,117.00 C551.17,117.00 558.44,120.34 566.62,124.43 C582.68,132.45 600.77,141.00 601.68,141.00 C601.99,141.00 605.90,142.62 610.37,144.60 C614.84,146.58 620.30,149.00 622.50,149.97 C624.70,150.94 628.53,152.64 631.00,153.75 C633.47,154.85 638.54,156.94 642.25,158.38 C645.96,159.82 651.89,162.12 655.42,163.50 C658.95,164.88 662.07,166.00 662.36,166.00 C662.64,166.00 664.14,166.52 665.68,167.15 C672.19,169.82 709.49,182.40 721.50,185.98 C728.65,188.11 739.67,191.44 746.00,193.37 C758.55,197.20 787.66,204.59 803.50,207.96 C809.00,209.12 815.30,210.50 817.50,211.01 C823.20,212.34 840.90,215.94 851.79,217.99 C856.90,218.96 861.32,219.99 861.62,220.29 C862.27,220.93 863.50,231.01 864.95,247.50 C871.06,317.10 869.27,405.25 860.43,470.00 C849.99,546.45 843.23,579.05 825.79,637.00 C808.51,694.43 786.19,745.07 755.98,795.40 C725.87,845.55 688.30,891.58 644.32,932.20 C627.73,947.52 604.96,966.54 590.84,976.86 C568.85,992.94 564.50,996.00 553.89,1002.80 C547.62,1006.82 538.90,1012.27 534.50,1014.91 C530.10,1017.55 521.23,1022.91 514.79,1026.81 ZM 661.22 715.29 C661.51,720.43 661.25,723.64 660.46,724.73 C659.37,726.21 659.18,726.15 658.54,724.14 C658.15,722.91 657.95,717.54 658.08,712.20 C658.32,702.94 658.31,684.34 658.06,660.50 C657.95,650.03 658.84,645.32 660.44,647.91 C660.98,648.77 661.28,689.98 660.86,705.00 C660.82,706.38 660.98,711.01 661.22,715.29 ZM 613.13 756.42 C611.41,757.48 604.00,757.79 604.00,756.80 C604.00,756.22 601.34,755.95 597.57,756.15 C594.04,756.33 590.81,756.15 590.41,755.74 C590.00,755.33 590.75,754.94 592.08,754.86 C593.59,754.77 593.00,754.45 590.50,754.00 L 586.50 753.28 L 590.50 752.94 C592.70,752.75 588.88,752.33 582.00,752.00 C574.10,751.62 581.45,751.40 602.00,751.38 C619.88,751.37 631.12,751.62 627.00,751.94 C622.72,752.27 620.36,752.78 621.50,753.14 C622.65,753.50 621.24,753.82 618.19,753.88 C615.20,753.95 613.13,754.41 613.46,754.93 C613.77,755.44 613.62,756.11 613.13,756.42 ZM 573.12 342.75 C573.05,343.44 572.58,344.00 572.06,344.00 C570.87,344.00 569.65,342.07 569.26,339.60 C568.92,337.41 571.64,334.00 573.71,334.00 C574.52,334.00 574.81,333.51 574.40,332.84 C573.90,332.03 574.41,331.88 576.09,332.33 C577.42,332.68 582.91,332.98 588.31,332.99 C594.09,332.99 597.88,333.38 597.54,333.93 C597.23,334.44 597.99,335.05 599.24,335.29 C600.48,335.53 596.27,335.79 589.88,335.86 C579.80,335.98 577.93,336.27 575.65,338.06 C574.22,339.19 573.08,340.43 573.14,340.81 C573.19,341.19 573.18,342.06 573.12,342.75 ZM 503.14 957.53 C498.62,961.34 494.00,962.61 494.00,960.05 C494.00,959.71 495.31,958.66 496.91,957.71 C499.06,956.44 499.94,956.31 500.24,957.21 C500.51,958.02 501.28,957.69 502.50,956.27 C503.52,955.08 504.73,954.33 505.18,954.61 C505.64,954.89 504.72,956.21 503.14,957.53 ZM 645.93 438.25 C645.97,442.51 645.85,446.00 645.67,446.00 C643.87,446.00 643.39,436.25 645.00,432.50 C645.58,431.14 645.88,432.99 645.93,438.25 ZM 754.44 267.47 C752.27,269.11 748.41,269.47 747.56,268.10 C746.84,266.93 749.38,266.00 753.27,266.00 C756.22,266.00 756.28,266.08 754.44,267.47 ZM 660.49 599.98 C660.84,601.07 660.71,602.69 660.21,603.59 C659.37,605.08 659.24,605.08 658.65,603.53 C657.70,601.05 657.86,598.00 658.93,598.00 C659.45,598.00 660.15,598.89 660.49,599.98 ZM 660.73 616.00 C660.82,618.20 660.47,620.00 659.95,620.00 C659.43,620.00 659.00,618.20 659.00,616.00 C659.00,613.80 659.35,612.00 659.79,612.00 C660.22,612.00 660.65,613.80 660.73,616.00 ZM 692.00 487.00 C692.00,489.38 690.46,489.65 689.61,487.42 C688.75,485.18 688.82,485.00 690.50,485.00 C691.33,485.00 692.00,485.89 692.00,487.00 ZM 646.33 419.41 C646.70,420.38 646.62,421.86 646.15,422.70 C644.98,424.79 644.01,422.25 644.96,419.57 C645.60,417.78 645.70,417.77 646.33,419.41 ZM 660.20 624.80 C661.13,625.73 661.13,626.27 660.20,627.20 C659.27,628.13 659.00,627.87 659.00,626.00 C659.00,624.13 659.27,623.87 660.20,624.80 ZM 661.00 593.94 C661.00,594.46 660.55,595.16 660.00,595.50 C659.45,595.84 659.00,595.42 659.00,594.56 C659.00,593.70 659.45,593.00 660.00,593.00 C660.55,593.00 661.00,593.42 661.00,593.94 Z" fill="rgb(39,112,67)"/>
<path d="M 480.40 971.82 C471.54,976.87 464.11,981.00 463.89,981.00 C462.27,981.00 423.75,957.85 409.00,948.01 C368.34,920.89 345.64,902.69 315.50,873.05 C295.32,853.20 292.49,850.17 279.46,834.50 C248.90,797.76 231.75,772.47 210.27,732.50 C203.51,719.91 188.57,687.77 183.55,675.00 C146.04,579.64 126.46,473.44 124.32,353.78 C123.72,319.62 125.16,276.58 126.98,274.66 C127.42,274.20 141.89,270.31 159.14,266.02 C196.00,256.85 204.67,254.40 236.00,244.33 C280.75,229.94 315.38,216.57 360.12,196.42 C377.52,188.58 441.98,156.51 442.98,155.20 C443.27,154.81 448.19,152.14 453.91,149.26 L 464.32 144.02 L 471.79 148.51 C475.89,150.98 479.77,153.00 480.40,153.00 C481.04,153.00 482.44,153.61 483.53,154.35 C492.55,160.55 552.90,190.31 578.00,200.95 C582.12,202.69 587.30,204.96 589.50,205.99 C598.84,210.36 615.60,217.22 631.00,222.97 C640.08,226.35 649.53,229.94 652.00,230.94 C654.47,231.94 659.65,233.75 663.50,234.97 C667.35,236.19 674.10,238.45 678.50,239.99 C694.42,245.57 711.90,250.95 732.00,256.47 C743.28,259.56 754.53,262.76 757.00,263.57 C759.47,264.39 762.87,265.21 764.55,265.41 C766.88,265.68 795.33,271.92 801.59,273.53 C805.28,274.48 804.52,380.46 800.51,423.00 C792.26,510.74 780.94,568.08 758.55,635.50 C750.47,659.85 747.67,667.10 736.89,691.65 C725.78,716.98 720.20,728.14 708.26,748.94 C682.44,793.92 654.33,830.77 618.55,866.54 C592.14,892.95 584.44,899.97 566.37,914.13 C533.59,939.82 516.96,950.98 480.40,971.82 ZM 287.10 750.01 C295.33,751.29 373.70,749.97 383.50,748.39 C402.56,745.30 430.47,733.55 447.94,721.26 C448.18,721.09 447.34,720.23 446.07,719.34 C437.32,713.21 399.89,677.26 391.06,666.50 C382.69,656.31 373.35,642.05 369.30,633.28 C365.53,625.12 362.03,610.51 362.01,602.84 C362.00,596.89 364.30,584.81 366.56,579.00 C368.84,573.13 375.96,562.33 380.17,558.36 C385.44,553.40 398.88,546.21 406.00,544.55 C425.31,540.04 444.96,545.19 458.32,558.24 L 464.20 563.99 L 470.16 558.08 C488.26,540.15 518.38,537.97 541.29,552.93 C554.37,561.46 562.36,573.93 565.60,590.84 C567.47,600.66 567.37,604.98 564.98,616.62 C559.43,643.58 536.37,673.13 488.73,714.35 L 481.97 720.20 L 486.23 723.65 C492.21,728.49 514.48,739.29 527.00,743.42 C545.58,749.54 550.50,749.99 598.85,750.00 L 598.94 750.00 C638.14,750.00 645.18,750.00 648.95,746.49 C649.78,745.72 650.45,744.78 651.27,743.63 L 653.50 740.50 L 654.50 541.50 L 681.00 541.00 C709.08,540.47 710.04,540.31 713.92,535.37 C716.18,532.50 716.81,524.39 715.04,521.07 C714.51,520.08 708.10,513.72 700.79,506.94 C693.48,500.16 676.14,483.82 662.25,470.62 L 637.00 446.62 L 637.00 342.85 L 634.08 339.92 L 631.15 337.00 L 579.15 337.00 L 576.08 339.59 L 573.16 342.04 C573.18,341.54 573.17,341.06 573.14,340.81 C573.08,340.43 574.22,339.19 575.65,338.06 C577.93,336.27 579.80,335.98 589.88,335.86 C596.27,335.79 600.48,335.53 599.24,335.29 C597.99,335.05 597.23,334.44 597.54,333.93 C597.88,333.38 594.09,332.99 588.31,332.99 C582.91,332.98 577.42,332.68 576.09,332.33 C574.41,331.88 573.90,332.03 574.40,332.84 C574.81,333.51 574.52,334.00 573.71,334.00 C571.64,334.00 568.92,337.41 569.26,339.60 C569.65,342.07 570.87,344.00 572.06,344.00 C572.45,344.00 572.81,343.68 573.00,343.23 L 573.00 363.66 C573.00,382.04 572.79,385.10 571.53,384.82 C569.73,384.43 541.36,358.36 488.50,308.53 C473.85,294.72 471.78,293.19 466.03,291.89 C460.70,290.69 455.25,293.95 442.55,305.93 C436.47,311.67 428.12,319.54 423.98,323.43 C404.64,341.61 384.26,360.83 380.96,364.00 C378.95,365.92 374.65,369.93 371.41,372.90 C364.01,379.66 344.65,397.67 332.06,409.50 C326.79,414.45 312.37,427.95 300.02,439.50 C287.67,451.05 272.11,465.67 265.44,472.00 C241.37,494.83 227.38,507.78 221.26,512.87 C214.16,518.77 211.98,522.27 212.04,527.70 C212.08,532.29 213.52,535.06 217.47,538.17 C220.40,540.46 220.90,540.51 247.22,540.80 C261.95,540.96 274.05,541.41 274.11,541.80 C274.17,542.18 274.39,585.47 274.59,638.00 C274.79,690.53 274.97,735.20 274.98,737.29 C275.01,742.78 280.99,749.06 287.10,750.01 ZM 454.50 1000.72 C462.22,1004.94 463.86,1005.49 466.00,1004.61 C468.55,1003.56 479.62,997.50 489.22,992.03 C484.47,994.79 479.18,997.83 475.25,1000.03 L 464.00 1006.33 L 464.00 1053.71 L 457.46 1050.34 C420.97,1031.52 382.33,1008.50 359.66,992.08 C353.15,987.36 345.25,981.70 342.09,979.50 C326.25,968.45 300.67,947.29 281.52,929.39 C240.90,891.42 202.91,845.46 178.11,804.29 C176.52,801.66 171.55,793.42 167.07,786.00 C149.72,757.28 128.34,711.43 115.31,675.00 C91.16,607.49 75.35,536.61 66.57,456.50 C62.10,415.67 59.44,356.72 60.42,320.00 C61.52,278.92 65.24,222.43 66.97,220.65 C67.43,220.18 77.41,217.87 89.15,215.52 C125.58,208.20 130.83,207.03 154.50,201.02 C195.10,190.70 259.17,169.93 285.50,158.55 C287.15,157.83 293.67,155.10 300.00,152.47 C306.33,149.84 314.88,146.14 319.00,144.24 C323.12,142.35 328.62,139.96 331.21,138.93 C333.80,137.90 340.10,134.96 345.21,132.39 C350.32,129.81 355.40,127.43 356.50,127.08 C357.60,126.74 363.67,123.80 370.00,120.55 C376.33,117.30 386.67,112.12 393.00,109.03 C399.33,105.95 410.53,100.06 417.91,95.96 C425.28,91.86 434.51,86.76 438.41,84.63 C442.31,82.51 447.32,79.58 449.54,78.13 C451.76,76.69 456.03,74.21 459.04,72.63 L 464.50 69.76 L 473.00 74.88 C476.38,76.91 479.48,78.68 481.09,79.50 C479.61,78.76 476.91,77.24 474.00,75.50 C469.88,73.04 465.94,71.02 465.25,71.01 C464.28,71.00 464.00,76.45 464.00,94.93 L 464.00 118.85 L 469.25 121.83 L 469.27 121.84 C463.55,118.85 462.47,119.23 458.79,121.23 C456.50,122.48 454.15,123.86 453.56,124.29 C451.16,126.08 421.85,142.00 420.96,142.00 C420.43,142.00 420.00,142.45 420.00,143.00 C420.00,143.55 419.45,144.00 418.77,144.00 C417.83,144.00 381.52,161.94 374.01,166.12 C372.25,167.10 346.43,178.68 327.00,187.20 C310.96,194.23 282.55,205.58 278.42,206.60 C276.82,207.00 272.40,208.64 268.62,210.24 C264.83,211.85 256.31,214.95 249.67,217.15 C243.04,219.34 236.88,221.53 235.98,222.01 C235.08,222.49 233.26,223.07 231.92,223.29 C230.59,223.51 228.82,223.97 228.00,224.31 C224.25,225.86 206.16,231.24 192.50,234.86 C184.25,237.05 174.12,239.75 170.00,240.86 C155.32,244.81 130.33,250.86 119.77,253.04 C113.87,254.26 108.29,255.80 107.37,256.47 C105.37,257.93 104.69,265.69 102.99,306.50 C101.81,334.83 102.20,369.56 104.08,401.50 C105.68,428.65 110.79,480.22 113.01,491.50 C113.55,494.25 114.92,501.90 116.07,508.50 C120.32,533.06 124.11,552.22 126.60,561.72 C128.00,567.10 131.80,581.85 135.02,594.50 C153.60,667.30 185.36,739.95 222.46,794.50 C234.84,812.71 236.78,815.42 246.43,827.93 C266.66,854.15 300.29,890.21 323.50,910.58 C344.24,928.78 378.62,954.75 398.59,967.32 C412.95,976.36 445.48,995.79 454.50,1000.72 ZM 456.50 702.35 C460.35,705.45 463.80,707.98 464.17,707.99 C466.71,708.04 501.06,676.42 515.23,661.00 C525.26,650.08 530.72,642.80 537.36,631.50 C543.99,620.20 546.23,612.59 546.25,601.22 C546.27,592.54 546.04,591.46 542.67,584.72 C534.86,569.06 523.16,562.27 505.59,563.19 C489.06,564.06 479.13,571.74 468.01,592.23 C464.71,598.31 463.97,599.13 463.30,597.46 C461.28,592.45 448.55,574.77 444.74,571.68 C436.08,564.66 432.74,563.56 420.00,563.53 C409.58,563.50 407.96,563.75 402.78,566.18 C395.44,569.62 388.46,576.82 384.72,584.81 C382.15,590.28 381.75,592.33 381.66,600.31 C381.53,613.56 385.16,624.23 394.82,639.00 C406.41,656.69 430.67,681.61 456.50,702.35 ZM 661.22 715.29 C660.98,711.01 660.82,706.38 660.86,705.00 C661.28,689.98 660.98,648.77 660.44,647.91 C658.84,645.32 657.95,650.03 658.06,660.50 C658.31,684.34 658.32,702.94 658.08,712.20 C657.95,717.54 658.15,722.91 658.54,724.14 C659.18,726.15 659.37,726.21 660.46,724.73 C661.25,723.64 661.51,720.43 661.22,715.29 ZM 613.13 756.42 C613.62,756.11 613.77,755.44 613.46,754.93 C613.13,754.41 615.20,753.95 618.19,753.88 C621.24,753.82 622.65,753.50 621.50,753.14 C620.36,752.78 622.72,752.27 627.00,751.94 C631.12,751.62 619.88,751.37 602.00,751.38 C581.45,751.40 574.10,751.62 582.00,752.00 C588.88,752.33 592.70,752.75 590.50,752.94 L 586.50 753.28 L 590.50 754.00 C593.00,754.45 593.59,754.77 592.08,754.86 C590.75,754.94 590.00,755.33 590.41,755.74 C590.81,756.15 594.04,756.33 597.57,756.15 C601.34,755.95 604.00,756.22 604.00,756.80 C604.00,757.79 611.41,757.48 613.13,756.42 ZM 503.14 957.53 C504.72,956.21 505.64,954.89 505.18,954.61 C504.73,954.33 503.52,955.08 502.50,956.27 C501.28,957.69 500.51,958.02 500.24,957.21 C499.94,956.31 499.06,956.44 496.91,957.71 C495.31,958.66 494.00,959.71 494.00,960.05 C494.00,962.61 498.62,961.34 503.14,957.53 ZM 645.93 438.25 C645.88,432.99 645.58,431.14 645.00,432.50 C643.39,436.25 643.87,446.00 645.67,446.00 C645.85,446.00 645.97,442.51 645.93,438.25 ZM 754.44 267.47 C756.28,266.08 756.22,266.00 753.27,266.00 C749.38,266.00 746.84,266.93 747.56,268.10 C748.41,269.47 752.27,269.11 754.44,267.47 ZM 660.49 599.98 C660.15,598.89 659.45,598.00 658.93,598.00 C657.86,598.00 657.70,601.05 658.65,603.53 C659.24,605.08 659.37,605.08 660.21,603.59 C660.71,602.69 660.84,601.07 660.49,599.98 ZM 660.73 616.00 C660.65,613.80 660.22,612.00 659.79,612.00 C659.35,612.00 659.00,613.80 659.00,616.00 C659.00,618.20 659.43,620.00 659.95,620.00 C660.47,620.00 660.82,618.20 660.73,616.00 ZM 692.00 487.00 C692.00,485.89 691.33,485.00 690.50,485.00 C688.82,485.00 688.75,485.18 689.61,487.42 C690.46,489.65 692.00,489.38 692.00,487.00 ZM 646.33 419.41 C645.70,417.77 645.60,417.78 644.96,419.57 C644.01,422.25 644.98,424.79 646.15,422.70 C646.62,421.86 646.70,420.38 646.33,419.41 ZM 660.20 624.80 C659.27,623.87 659.00,624.13 659.00,626.00 C659.00,627.87 659.27,628.13 660.20,627.20 C661.13,626.27 661.13,625.73 660.20,624.80 ZM 661.00 593.94 C661.00,593.42 660.55,593.00 660.00,593.00 C659.45,593.00 659.00,593.70 659.00,594.56 C659.00,595.42 659.45,595.84 660.00,595.50 C660.55,595.16 661.00,594.46 661.00,593.94 ZM 502.85 983.94 C506.32,981.74 509.26,980.00 509.52,980.00 C509.53,980.00 509.56,979.99 509.60,979.97 C508.37,980.68 505.82,982.18 502.85,983.94 ZM 537.66 158.05 C554.10,166.20 569.85,173.83 575.00,176.00 C569.75,173.78 554.07,166.19 537.66,158.05 Z" fill="rgb(83,162,103)"/>
<path d="M 486.67 1083.90 C474.66,1090.01 464.54,1094.96 464.17,1094.91 C463.38,1094.81 460.46,1093.31 440.00,1082.45 C409.79,1066.43 408.13,1065.52 393.00,1056.66 C371.77,1044.23 358.48,1035.92 345.65,1027.06 C338.03,1021.80 330.83,1016.83 329.65,1016.02 C289.87,988.66 237.96,941.35 205.66,903.03 C198.46,894.49 192.33,887.28 192.03,887.00 C191.74,886.72 188.99,883.35 185.92,879.50 C165.79,854.23 143.46,820.01 125.22,786.50 C113.35,764.69 110.47,758.63 95.98,724.95 C78.76,684.92 65.52,644.74 53.67,596.50 C50.16,582.20 46.50,566.22 45.54,561.00 C44.58,555.78 43.17,548.12 42.41,544.00 C31.71,485.82 26.59,439.68 23.89,377.00 C22.72,350.05 23.29,296.42 24.95,276.31 C25.49,269.81 26.43,257.52 27.05,249.00 C29.23,219.06 32.78,189.63 34.36,188.48 C35.16,187.89 40.03,186.83 45.16,186.13 C53.74,184.95 84.74,178.89 106.50,174.12 C135.20,167.84 139.04,166.89 166.00,159.42 C186.54,153.73 188.63,153.09 210.66,145.94 C286.21,121.40 371.87,81.42 458.79,30.12 C461.71,28.41 464.34,27.00 464.64,27.00 C464.94,27.00 466.39,27.85 467.85,28.88 C469.31,29.92 476.35,34.12 483.50,38.22 C591.38,100.11 668.45,133.18 770.50,161.38 C797.36,168.81 875.70,185.47 892.00,187.23 C894.21,187.47 894.63,188.19 895.61,193.50 C898.16,207.38 902.32,256.05 904.11,293.00 C905.39,319.51 904.82,378.31 903.02,405.00 C898.19,476.79 888.49,541.14 873.39,601.50 C866.28,629.93 863.49,639.50 854.02,668.00 C845.98,692.18 839.23,710.04 830.01,731.50 C815.18,766.02 799.91,794.96 780.16,826.00 C769.96,842.03 768.13,844.75 757.67,859.50 C729.18,899.65 690.47,941.70 649.95,976.50 C623.30,999.39 606.30,1012.09 571.50,1035.10 C543.08,1053.89 523.07,1065.40 486.67,1083.90 ZM 453.87 1069.08 C458.07,1071.16 462.32,1072.89 463.33,1072.93 C466.98,1073.07 521.66,1043.77 547.77,1027.68 C566.49,1016.14 617.11,980.46 621.00,976.07 C621.28,975.75 623.75,973.72 626.50,971.53 C629.25,969.35 631.72,967.32 632.00,967.01 C632.28,966.70 636.10,963.37 640.50,959.60 C693.16,914.51 748.36,847.17 780.35,789.00 C800.15,752.98 810.29,731.67 821.74,702.00 C854.99,615.82 873.65,531.97 882.48,429.00 C887.86,366.30 886.93,284.28 880.15,222.21 C879.11,212.70 878.03,204.69 877.75,204.41 C877.47,204.13 871.45,203.01 864.37,201.91 C857.29,200.81 843.62,198.13 834.00,195.95 C824.38,193.77 809.30,190.37 800.50,188.38 C791.70,186.39 782.03,184.10 779.00,183.29 C775.97,182.48 769.22,180.70 764.00,179.34 C736.86,172.26 678.86,153.31 654.50,143.56 C610.98,126.14 551.68,98.48 528.00,84.54 C524.97,82.76 518.00,78.93 512.50,76.03 C501.29,70.11 487.02,62.17 479.50,57.66 C476.75,56.01 471.91,53.19 468.75,51.38 L 463.00 48.11 L 452.25 54.65 C434.66,65.36 423.73,71.49 404.00,81.73 C397.12,85.30 391.05,88.57 390.50,89.01 C389.30,89.96 358.40,105.40 348.50,109.99 C344.65,111.78 336.37,115.67 330.09,118.65 C323.82,121.62 313.25,126.33 306.59,129.12 C299.94,131.90 291.58,135.47 288.00,137.04 C269.10,145.35 211.97,165.64 191.00,171.50 C150.42,182.83 135.44,186.79 128.50,188.04 C125.20,188.63 121.15,189.51 119.50,190.00 C117.85,190.48 113.80,191.40 110.50,192.03 C107.20,192.66 100.90,194.02 96.50,195.06 C83.74,198.08 74.31,199.99 62.22,202.02 C56.02,203.06 50.57,204.15 50.11,204.43 C48.92,205.17 48.29,209.88 46.54,231.00 C40.94,298.60 40.55,375.52 45.51,434.00 C51.21,501.19 65.45,577.68 82.96,635.20 C103.99,704.24 129.56,761.62 163.17,815.16 C172.21,829.56 185.94,849.91 189.62,854.35 C190.46,855.37 193.03,858.74 195.32,861.85 C215.67,889.42 253.28,929.86 281.50,954.52 C286.45,958.84 290.73,962.64 291.00,962.95 C291.48,963.49 299.29,969.84 312.92,980.78 C316.54,983.68 320.17,986.60 321.00,987.28 C328.41,993.32 374.19,1025.00 375.52,1025.00 C375.70,1025.00 379.37,1027.34 383.68,1030.20 C390.86,1034.97 409.82,1045.60 431.00,1056.75 C435.67,1059.21 441.02,1062.14 442.87,1063.27 C444.73,1064.39 449.68,1067.01 453.87,1069.08 ZM 454.50 1000.72 C445.48,995.79 412.95,976.36 398.59,967.32 C378.62,954.75 344.24,928.78 323.50,910.58 C300.29,890.21 266.66,854.15 246.43,827.93 C236.78,815.42 234.84,812.71 222.46,794.50 C185.36,739.95 153.60,667.30 135.02,594.50 C131.80,581.85 128.00,567.10 126.60,561.72 C124.11,552.22 120.32,533.06 116.07,508.50 C114.92,501.90 113.55,494.25 113.01,491.50 C110.79,480.22 105.68,428.65 104.08,401.50 C102.20,369.56 101.81,334.83 102.99,306.50 C104.69,265.69 105.37,257.93 107.37,256.47 C108.29,255.80 113.87,254.26 119.77,253.04 C130.33,250.86 155.32,244.81 170.00,240.86 C174.12,239.75 184.25,237.05 192.50,234.86 C206.16,231.24 224.25,225.86 228.00,224.31 C228.82,223.97 230.59,223.51 231.92,223.29 C233.26,223.07 235.08,222.49 235.98,222.01 C236.88,221.53 243.04,219.34 249.67,217.15 C256.31,214.95 264.83,211.85 268.62,210.24 C272.40,208.64 276.82,207.00 278.42,206.60 C282.55,205.58 310.96,194.23 327.00,187.20 C346.43,178.68 372.25,167.10 374.01,166.12 C381.52,161.94 417.83,144.00 418.77,144.00 C419.45,144.00 420.00,143.55 420.00,143.00 C420.00,142.45 420.43,142.00 420.96,142.00 C421.85,142.00 451.16,126.08 453.56,124.29 C454.15,123.86 456.50,122.48 458.79,121.23 C462.47,119.23 463.55,118.85 469.27,121.84 C472.16,123.48 476.31,125.81 478.50,127.04 C480.70,128.26 487.67,132.18 494.00,135.74 C500.45,139.37 519.48,149.04 537.67,158.06 C554.08,166.20 569.75,173.78 575.00,176.00 C578.58,177.51 589.60,182.20 599.50,186.42 C645.11,205.89 702.80,226.56 734.00,234.61 C741.42,236.52 751.78,239.25 757.00,240.67 C762.22,242.10 778.82,246.09 793.87,249.55 C808.93,253.02 821.69,256.29 822.23,256.83 C823.60,258.20 825.92,307.82 825.95,336.50 C826.00,386.01 820.96,453.50 813.89,498.00 C802.41,570.18 784.99,633.77 760.74,692.00 C757.62,699.49 754.24,706.79 741.73,733.00 C734.34,748.48 715.22,780.71 702.00,800.00 C677.70,835.43 658.83,858.07 629.35,887.14 C608.44,907.76 581.34,931.11 561.50,945.58 C559.30,947.19 557.05,948.83 556.50,949.23 C555.95,949.64 552.58,951.93 549.00,954.32 C545.42,956.71 540.47,960.05 538.00,961.74 C531.29,966.33 513.67,977.66 509.84,979.83 C509.77,979.88 509.69,979.92 509.60,979.97 C509.56,979.99 509.53,980.00 509.52,980.00 C509.26,980.00 506.32,981.74 502.85,983.94 C500.84,985.14 498.63,986.45 496.50,987.73 C494.49,988.93 491.94,990.44 489.22,992.03 L 489.22 992.03 C479.62,997.50 468.55,1003.56 466.00,1004.61 C463.86,1005.49 462.22,1004.94 454.50,1000.72 ZM 480.40 971.82 C516.96,950.98 533.59,939.82 566.37,914.13 C584.44,899.97 592.14,892.95 618.55,866.54 C654.33,830.77 682.44,793.92 708.26,748.94 C720.20,728.14 725.78,716.98 736.89,691.65 C747.67,667.10 750.47,659.85 758.55,635.50 C780.94,568.08 792.26,510.74 800.51,423.00 C804.52,380.46 805.28,274.48 801.59,273.53 C795.33,271.92 766.88,265.68 764.55,265.41 C762.87,265.21 759.47,264.39 757.00,263.57 C754.53,262.76 743.28,259.56 732.00,256.47 C711.90,250.95 694.42,245.57 678.50,239.99 C674.10,238.45 667.35,236.19 663.50,234.97 C659.65,233.75 654.47,231.94 652.00,230.94 C649.53,229.94 640.08,226.35 631.00,222.97 C615.60,217.22 598.84,210.36 589.50,205.99 C587.30,204.96 582.12,202.69 578.00,200.95 C552.90,190.31 492.55,160.55 483.53,154.35 C482.44,153.61 481.04,153.00 480.40,153.00 C479.77,153.00 475.89,150.98 471.79,148.51 L 464.32 144.02 L 453.91 149.26 C448.19,152.14 443.27,154.81 442.98,155.20 C441.98,156.51 377.52,188.58 360.12,196.42 C315.38,216.57 280.75,229.94 236.00,244.33 C204.67,254.40 196.00,256.85 159.14,266.02 C141.89,270.31 127.42,274.20 126.98,274.66 C125.16,276.58 123.72,319.62 124.32,353.78 C126.46,473.44 146.04,579.64 183.55,675.00 C188.57,687.77 203.51,719.91 210.27,732.50 C231.75,772.47 248.90,797.76 279.46,834.50 C292.49,850.17 295.32,853.20 315.50,873.05 C345.64,902.69 368.34,920.89 409.00,948.01 C423.75,957.85 462.27,981.00 463.89,981.00 C464.11,981.00 471.54,976.87 480.40,971.82 ZM 456.50 702.35 C430.67,681.61 406.41,656.69 394.82,639.00 C385.16,624.23 381.53,613.56 381.66,600.31 C381.75,592.33 382.15,590.28 384.72,584.81 C388.46,576.82 395.44,569.62 402.78,566.18 C407.96,563.75 409.58,563.50 420.00,563.53 C432.74,563.56 436.08,564.66 444.74,571.68 C448.55,574.77 461.28,592.45 463.30,597.46 C463.97,599.13 464.71,598.31 468.01,592.23 C479.13,571.74 489.06,564.06 505.59,563.19 C523.16,562.27 534.86,569.06 542.67,584.72 C546.04,591.46 546.27,592.54 546.25,601.22 C546.23,612.59 543.99,620.20 537.36,631.50 C530.72,642.80 525.26,650.08 515.23,661.00 C501.06,676.42 466.71,708.04 464.17,707.99 C463.80,707.98 460.35,705.45 456.50,702.35 Z" fill="rgb(178,209,175)"/>
<path d="M 0.00 558.50 L 0.00 0.00 L 469.50 0.00 L 939.00 0.00 L 939.00 558.50 L 939.00 1117.00 L 469.50 1117.00 L 0.00 1117.00 L 0.00 558.50 ZM 486.67 1083.90 C523.07,1065.40 543.08,1053.89 571.50,1035.10 C606.30,1012.09 623.30,999.39 649.95,976.50 C690.47,941.70 729.18,899.65 757.67,859.50 C768.13,844.75 769.96,842.03 780.16,826.00 C799.91,794.96 815.18,766.02 830.01,731.50 C839.23,710.04 845.98,692.18 854.02,668.00 C863.49,639.50 866.28,629.93 873.39,601.50 C888.49,541.14 898.19,476.79 903.02,405.00 C904.82,378.31 905.39,319.51 904.11,293.00 C902.32,256.05 898.16,207.38 895.61,193.50 C894.63,188.19 894.21,187.47 892.00,187.23 C875.70,185.47 797.36,168.81 770.50,161.38 C668.45,133.18 591.38,100.11 483.50,38.22 C476.35,34.12 469.31,29.92 467.85,28.88 C466.39,27.85 464.94,27.00 464.64,27.00 C464.34,27.00 461.71,28.41 458.79,30.12 C371.87,81.42 286.21,121.40 210.66,145.94 C188.63,153.09 186.54,153.73 166.00,159.42 C139.04,166.89 135.20,167.84 106.50,174.12 C84.74,178.89 53.74,184.95 45.16,186.13 C40.03,186.83 35.16,187.89 34.36,188.48 C32.78,189.63 29.23,219.06 27.05,249.00 C26.43,257.52 25.49,269.81 24.95,276.31 C23.29,296.42 22.72,350.05 23.89,377.00 C26.59,439.68 31.71,485.82 42.41,544.00 C43.17,548.12 44.58,555.78 45.54,561.00 C46.50,566.22 50.16,582.20 53.67,596.50 C65.52,644.74 78.76,684.92 95.98,724.95 C110.47,758.63 113.35,764.69 125.22,786.50 C143.46,820.01 165.79,854.23 185.92,879.50 C188.99,883.35 191.74,886.72 192.03,887.00 C192.33,887.28 198.46,894.49 205.66,903.03 C237.96,941.35 289.87,988.66 329.65,1016.02 C330.83,1016.83 338.03,1021.80 345.65,1027.06 C358.48,1035.92 371.77,1044.23 393.00,1056.66 C408.13,1065.52 409.79,1066.43 440.00,1082.45 C460.46,1093.31 463.38,1094.81 464.17,1094.91 C464.54,1094.96 474.66,1090.01 486.67,1083.90 ZM 453.87 1069.08 C449.68,1067.01 444.73,1064.39 442.87,1063.27 C441.02,1062.14 435.67,1059.21 431.00,1056.75 C409.82,1045.60 390.86,1034.97 383.68,1030.20 C379.37,1027.34 375.70,1025.00 375.52,1025.00 C374.19,1025.00 328.41,993.32 321.00,987.28 C320.17,986.60 316.54,983.68 312.92,980.78 C299.29,969.84 291.48,963.49 291.00,962.95 C290.73,962.64 286.45,958.84 281.50,954.52 C253.28,929.86 215.67,889.42 195.32,861.85 C193.03,858.74 190.46,855.37 189.62,854.35 C185.94,849.91 172.21,829.56 163.17,815.16 C129.56,761.62 103.99,704.24 82.96,635.20 C65.45,577.68 51.21,501.19 45.51,434.00 C40.55,375.52 40.94,298.60 46.54,231.00 C48.29,209.88 48.92,205.17 50.11,204.43 C50.57,204.15 56.02,203.06 62.22,202.02 C74.31,199.99 83.74,198.08 96.50,195.06 C100.90,194.02 107.20,192.66 110.50,192.03 C113.80,191.40 117.85,190.48 119.50,190.00 C121.15,189.51 125.20,188.63 128.50,188.04 C135.44,186.79 150.42,182.83 191.00,171.50 C211.97,165.64 269.10,145.35 288.00,137.04 C291.58,135.47 299.94,131.90 306.59,129.12 C313.25,126.33 323.82,121.62 330.09,118.65 C336.37,115.67 344.65,111.78 348.50,109.99 C358.40,105.40 389.30,89.96 390.50,89.01 C391.05,88.57 397.12,85.30 404.00,81.73 C423.73,71.49 434.66,65.36 452.25,54.65 L 463.00 48.11 L 468.75 51.38 C471.91,53.19 476.75,56.01 479.50,57.66 C487.02,62.17 501.29,70.11 512.50,76.03 C518.00,78.93 524.97,82.76 528.00,84.54 C551.68,98.48 610.98,126.14 654.50,143.56 C678.86,153.31 736.86,172.26 764.00,179.34 C769.22,180.70 775.97,182.48 779.00,183.29 C782.03,184.10 791.70,186.39 800.50,188.38 C809.30,190.37 824.38,193.77 834.00,195.95 C843.62,198.13 857.29,200.81 864.37,201.91 C871.45,203.01 877.47,204.13 877.75,204.41 C878.03,204.69 879.11,212.70 880.15,222.21 C886.93,284.28 887.86,366.30 882.48,429.00 C873.65,531.97 854.99,615.82 821.74,702.00 C810.29,731.67 800.15,752.98 780.35,789.00 C748.36,847.17 693.16,914.51 640.50,959.60 C636.10,963.37 632.28,966.70 632.00,967.01 C631.72,967.32 629.25,969.35 626.50,971.53 C623.75,973.72 621.28,975.75 621.00,976.07 C617.11,980.46 566.49,1016.14 547.77,1027.68 C521.66,1043.77 466.98,1073.07 463.33,1072.93 C462.32,1072.89 458.07,1071.16 453.87,1069.08 ZM 514.79 1026.81 C521.23,1022.91 530.10,1017.55 534.50,1014.91 C538.90,1012.27 547.62,1006.82 553.89,1002.80 C564.50,996.00 568.85,992.94 590.84,976.86 C604.96,966.54 627.73,947.52 644.32,932.20 C688.30,891.58 725.87,845.55 755.98,795.40 C786.19,745.07 808.51,694.43 825.79,637.00 C843.23,579.05 849.99,546.45 860.43,470.00 C869.27,405.25 871.06,317.10 864.95,247.50 C863.50,231.01 862.27,220.93 861.62,220.29 C861.32,219.99 856.90,218.96 851.79,217.99 C840.90,215.94 823.20,212.34 817.50,211.01 C815.30,210.50 809.00,209.12 803.50,207.96 C787.66,204.59 758.55,197.20 746.00,193.37 C739.67,191.44 728.65,188.11 721.50,185.98 C709.49,182.40 672.19,169.82 665.68,167.15 C664.14,166.52 662.64,166.00 662.36,166.00 C662.07,166.00 658.95,164.88 655.42,163.50 C651.89,162.12 645.96,159.82 642.25,158.38 C638.54,156.94 633.47,154.85 631.00,153.75 C628.53,152.64 624.70,150.94 622.50,149.97 C620.30,149.00 614.84,146.58 610.37,144.60 C605.90,142.62 601.99,141.00 601.68,141.00 C600.77,141.00 582.68,132.45 566.62,124.43 C558.44,120.34 551.17,117.00 550.46,117.00 C549.75,117.00 549.02,116.65 548.83,116.23 C548.65,115.80 542.88,112.64 536.00,109.20 C529.12,105.76 519.90,100.94 515.50,98.50 C511.10,96.05 505.48,92.96 503.00,91.63 C500.52,90.30 495.00,87.14 490.72,84.60 C486.44,82.07 482.62,80.00 482.22,80.00 C481.82,80.00 477.67,77.69 473.00,74.88 L 464.50 69.76 L 459.04 72.63 C456.03,74.21 451.76,76.69 449.54,78.13 C447.32,79.58 442.31,82.51 438.41,84.63 C434.51,86.76 425.28,91.86 417.91,95.96 C410.53,100.06 399.33,105.95 393.00,109.03 C386.67,112.12 376.33,117.30 370.00,120.55 C363.67,123.80 357.60,126.74 356.50,127.08 C355.40,127.43 350.32,129.81 345.21,132.39 C340.10,134.96 333.80,137.90 331.21,138.93 C328.62,139.96 323.12,142.35 319.00,144.24 C314.88,146.14 306.33,149.84 300.00,152.47 C293.67,155.10 287.15,157.83 285.50,158.55 C259.17,169.93 195.10,190.70 154.50,201.02 C130.83,207.03 125.58,208.20 89.15,215.52 C77.41,217.87 67.43,220.18 66.97,220.65 C65.24,222.43 61.52,278.92 60.42,320.00 C59.44,356.72 62.10,415.67 66.57,456.50 C75.35,536.61 91.16,607.49 115.31,675.00 C128.34,711.43 149.72,757.28 167.07,786.00 C171.55,793.42 176.52,801.66 178.11,804.29 C202.91,845.46 240.90,891.42 281.52,929.39 C300.67,947.29 326.25,968.45 342.09,979.50 C345.25,981.70 353.15,987.36 359.66,992.08 C382.33,1008.50 420.97,1031.52 457.46,1050.34 L 464.42 1053.93 L 483.76 1043.92 C494.39,1038.41 508.36,1030.71 514.79,1026.81 ZM 287.10 750.01 C280.99,749.06 275.01,742.78 274.98,737.29 C274.97,735.20 274.79,690.53 274.59,638.00 C274.39,585.47 274.17,542.18 274.11,541.80 C274.05,541.41 261.95,540.96 247.22,540.80 C220.90,540.51 220.40,540.46 217.47,538.17 C213.52,535.06 212.08,532.29 212.04,527.70 C211.98,522.27 214.16,518.77 221.26,512.87 C227.38,507.78 241.37,494.83 265.44,472.00 C272.11,465.67 287.67,451.05 300.02,439.50 C312.37,427.95 326.79,414.45 332.06,409.50 C344.65,397.67 364.01,379.66 371.41,372.90 C374.65,369.93 378.95,365.92 380.96,364.00 C384.26,360.83 404.64,341.61 423.98,323.43 C428.12,319.54 436.47,311.67 442.55,305.93 C455.25,293.95 460.70,290.69 466.03,291.89 C471.78,293.19 473.85,294.72 488.50,308.53 C541.36,358.36 569.73,384.43 571.53,384.82 C572.79,385.10 573.00,382.04 573.00,363.66 L 573.00 342.18 L 576.08 339.59 L 579.15 337.00 L 605.15 337.00 L 631.15 337.00 L 634.08 339.92 L 637.00 342.85 L 637.00 394.73 L 637.00 446.62 L 662.25 470.62 C676.14,483.82 693.48,500.16 700.79,506.94 C708.10,513.72 714.51,520.08 715.04,521.07 C716.81,524.39 716.18,532.50 713.92,535.37 C710.04,540.31 709.08,540.47 681.00,541.00 L 654.50 541.50 L 654.00 641.00 L 653.50 740.50 L 651.27 743.63 C646.72,750.00 646.76,750.00 598.85,750.00 C550.50,749.99 545.58,749.54 527.00,743.42 C514.48,739.29 492.21,728.49 486.23,723.65 L 481.97 720.20 L 488.73 714.35 C536.37,673.13 559.43,643.58 564.98,616.62 C567.37,604.98 567.47,600.66 565.60,590.84 C562.36,573.93 554.37,561.46 541.29,552.93 C518.38,537.97 488.26,540.15 470.16,558.08 L 464.20 563.99 L 458.32 558.24 C444.96,545.19 425.31,540.04 406.00,544.55 C398.88,546.21 385.44,553.40 380.17,558.36 C375.96,562.33 368.84,573.13 366.56,579.00 C364.30,584.81 362.00,596.89 362.01,602.84 C362.03,610.51 365.53,625.12 369.30,633.28 C373.35,642.05 382.69,656.31 391.06,666.50 C399.89,677.26 437.32,713.21 446.07,719.34 C447.34,720.23 448.18,721.09 447.94,721.26 C430.47,733.55 402.56,745.30 383.50,748.39 C373.70,749.97 295.33,751.29 287.10,750.01 Z" fill="rgb(253,254,253)"/>
</g>
</svg>